<svg width="1176" height="512" viewBox="0 0 1176 512" fill="none" xmlns="http://www.w3.org/2000/svg">
<rect width="512" height="512" fill="#008577"/>
<path d="M246.26 38V41.2523V87.2579C237.865 86.2872 214.737 88.4112 189.389 104.673C157.704 125 139.018 175.411 157.704 217.692C176.39 259.972 219.449 269.729 263.321 292.495C307.193 315.262 292.569 343.72 286.882 358.355C282.332 370.064 259.53 370.28 248.697 368.925C224.649 368.925 216.471 334.776 215.387 317.701H139.018C137.718 400.31 206.721 424.757 241.385 426.654V473H278.757V426.654C313.692 424.215 333.191 409.579 353.502 389.252C373.812 368.925 373 314.449 363.251 296.561C349.439 268.916 323.441 247.776 282.819 232.327C232.448 218.505 225.136 192.486 227.574 172.972C230.174 153.458 245.447 145.869 252.759 144.514C287.207 138.009 295.277 173.785 295.006 192.486H373C368.45 115.08 310.984 90.0816 282.819 87.2579V38H246.26Z" fill="#00574B"/>
<circle cx="69" cy="145" r="15" fill="white"/>
<circle cx="69" cy="256" r="15" fill="white"/>
<circle cx="69" cy="367" r="15" fill="white"/>
<rect x="107" y="130" width="350" height="30" rx="15" fill="white"/>
<rect x="107" y="241" width="350" height="30" rx="15" fill="white"/>
<rect x="107" y="352" width="350" height="30" rx="15" fill="white"/>
<path d="M601.744 350C596.176 350 591.76 348.464 588.496 345.392C585.424 342.32 583.888 338 583.888 332.432V164.528C583.888 158.96 585.424 154.64 588.496 151.568C591.76 148.496 596.176 146.96 601.744 146.96H658.768C691.984 146.96 717.712 155.888 735.952 173.744C754.384 191.408 763.6 216.272 763.6 248.336C763.6 280.592 754.384 305.648 735.952 323.504C717.712 341.168 691.984 350 658.768 350H601.744ZM656.464 319.76C703.12 319.76 726.448 295.952 726.448 248.336C726.448 200.912 703.12 177.2 656.464 177.2H621.04V319.76H656.464ZM897.781 311.408C901.045 311.408 903.637 312.656 905.557 315.152C907.669 317.648 908.725 321.008 908.725 325.232C908.725 331.184 905.173 336.176 898.069 340.208C891.541 343.856 884.149 346.832 875.893 349.136C867.637 351.248 859.765 352.304 852.277 352.304C829.621 352.304 811.669 345.776 798.421 332.72C785.173 319.664 778.549 301.808 778.549 279.152C778.549 264.752 781.429 251.984 787.189 240.848C792.949 229.712 801.013 221.072 811.381 214.928C821.941 208.784 833.845 205.712 847.093 205.712C859.765 205.712 870.805 208.496 880.213 214.064C889.621 219.632 896.917 227.504 902.101 237.68C907.285 247.856 909.877 259.856 909.877 273.68C909.877 281.936 906.229 286.064 898.933 286.064H813.973C815.125 299.312 818.869 309.104 825.205 315.44C831.541 321.584 840.757 324.656 852.853 324.656C858.997 324.656 864.373 323.888 868.981 322.352C873.781 320.816 879.157 318.704 885.109 316.016C890.869 312.944 895.093 311.408 897.781 311.408ZM847.957 231.056C838.165 231.056 830.293 234.128 824.341 240.272C818.581 246.416 815.125 255.248 813.973 266.768H879.061C878.677 255.056 875.797 246.224 870.421 240.272C865.045 234.128 857.557 231.056 847.957 231.056ZM1008.73 205.712C1021.02 205.712 1031.87 208.688 1041.28 214.64C1050.68 220.592 1057.98 229.04 1063.16 239.984C1068.54 250.928 1071.23 263.696 1071.23 278.288C1071.23 292.88 1068.54 305.84 1063.16 317.168C1057.98 328.304 1050.59 336.944 1040.99 343.088C1031.58 349.232 1020.83 352.304 1008.73 352.304C998.557 352.304 989.437 350.096 981.373 345.68C973.501 341.264 967.453 335.12 963.229 327.248V334.448C963.229 339.632 961.597 343.76 958.333 346.832C955.069 349.904 950.749 351.44 945.373 351.44C939.997 351.44 935.677 349.904 932.413 346.832C929.341 343.76 927.805 339.632 927.805 334.448V162.224C927.805 157.232 929.437 153.2 932.701 150.128C936.157 147.056 940.573 145.52 945.949 145.52C951.325 145.52 955.645 146.96 958.909 149.84C962.173 152.72 963.805 156.656 963.805 161.648V229.616C968.029 221.936 974.077 216.08 981.949 212.048C989.821 207.824 998.749 205.712 1008.73 205.712ZM999.229 324.368C1010.56 324.368 1019.39 320.336 1025.73 312.272C1032.06 304.208 1035.23 292.88 1035.23 278.288C1035.23 263.888 1032.06 252.848 1025.73 245.168C1019.58 237.488 1010.75 233.648 999.229 233.648C987.709 233.648 978.781 237.584 972.445 245.456C966.301 253.136 963.229 264.272 963.229 278.864C963.229 293.456 966.301 304.688 972.445 312.56C978.781 320.432 987.709 324.368 999.229 324.368ZM1161.56 324.944C1171.16 325.52 1175.96 329.84 1175.96 337.904C1175.96 342.512 1174.04 346.064 1170.2 348.56C1166.55 350.864 1161.27 351.824 1154.36 351.44L1146.59 350.864C1114.33 348.56 1098.2 331.28 1098.2 299.024V236.24H1083.8C1078.62 236.24 1074.59 235.088 1071.71 232.784C1069.02 230.48 1067.67 227.12 1067.67 222.704C1067.67 218.288 1069.02 214.928 1071.71 212.624C1074.59 210.32 1078.62 209.168 1083.8 209.168H1098.2V182.672C1098.2 177.488 1099.83 173.36 1103.1 170.288C1106.36 167.216 1110.78 165.68 1116.35 165.68C1121.72 165.68 1126.04 167.216 1129.31 170.288C1132.57 173.36 1134.2 177.488 1134.2 182.672V209.168H1158.68C1163.87 209.168 1167.8 210.32 1170.49 212.624C1173.37 214.928 1174.81 218.288 1174.81 222.704C1174.81 227.12 1173.37 230.48 1170.49 232.784C1167.8 235.088 1163.87 236.24 1158.68 236.24H1134.2V301.616C1134.2 315.824 1140.73 323.408 1153.79 324.368L1161.56 324.944Z" fill="white"/>
</svg>
